<?xml version="1.0" standalone="no"?><svg xmlns="http://www.w3.org/2000/svg" viewBox="0 0 1440 320"><path fill="#0099ff" fill-opacity="1" d="M0,64L20,80C40,96,80,128,120,133.3C160,139,200,117,240,96C280,75,320,53,360,42.7C400,32,440,32,480,37.3C520,43,560,53,600,80C640,107,680,149,720,160C760,171,800,149,840,149.3C880,149,920,171,960,192C1000,213,1040,235,1080,229.3C1120,224,1160,192,1200,202.7C1240,213,1280,267,1320,256C1360,245,1400,171,1420,133.3L1440,96L1440,320L1420,320C1400,320,1360,320,1320,320C1280,320,1240,320,1200,320C1160,320,1120,320,1080,320C1040,320,1000,320,960,320C920,320,880,320,840,320C800,320,760,320,720,320C680,320,640,320,600,320C560,320,520,320,480,320C440,320,400,320,360,320C320,320,280,320,240,320C200,320,160,320,120,320C80,320,40,320,20,320L0,320Z"></path></svg>