<?xml version="1.0" standalone="no"?><svg xmlns="http://www.w3.org/2000/svg" viewBox="0 0 1440 320"><path fill="#00000" fill-opacity="1" d="M0,256L21.8,250.7C43.6,245,87,235,131,224C174.5,213,218,203,262,186.7C305.5,171,349,149,393,165.3C436.4,181,480,235,524,266.7C567.3,299,611,309,655,309.3C698.2,309,742,299,785,293.3C829.1,288,873,288,916,272C960,256,1004,224,1047,213.3C1090.9,203,1135,213,1178,202.7C1221.8,192,1265,160,1309,133.3C1352.7,107,1396,85,1418,74.7L1440,64L1440,320L1418.2,320C1396.4,320,1353,320,1309,320C1265.5,320,1222,320,1178,320C1134.5,320,1091,320,1047,320C1003.6,320,960,320,916,320C872.7,320,829,320,785,320C741.8,320,698,320,655,320C610.9,320,567,320,524,320C480,320,436,320,393,320C349.1,320,305,320,262,320C218.2,320,175,320,131,320C87.3,320,44,320,22,320L0,320Z"></path></svg>